<svg width="13" height="15" viewBox="0 0 13 15" fill="none" xmlns="http://www.w3.org/2000/svg">
<path d="M11.8521 12.7998C11.0947 13.0912 10.2873 13.2305 9.4761 13.2098C8.66488 13.189 7.86568 13.0087 7.12417 12.679C6.38265 12.3493 5.71335 11.8768 5.15449 11.2884C4.59563 10.7001 4.15817 10.0073 3.86708 9.24984C3.84508 9.18984 3.82408 9.13284 3.80208 9.07284H10.1851C10.2997 9.07284 10.4095 9.02733 10.4906 8.94631C10.5716 8.8653 10.6171 8.75541 10.6171 8.64084C10.6171 8.52627 10.5716 8.41639 10.4906 8.33537C10.4095 8.25436 10.2997 8.20884 10.1851 8.20884H3.57808C3.44936 7.52496 3.43483 6.82447 3.53508 6.13584H10.8781C10.9927 6.13584 11.1025 6.09033 11.1836 6.00931C11.2646 5.9283 11.3101 5.81842 11.3101 5.70384C11.3101 5.58927 11.2646 5.47939 11.1836 5.39837C11.1025 5.31736 10.9927 5.27184 10.8781 5.27184H3.72408C4.19661 3.70219 5.2733 2.38452 6.71732 1.60869C8.16134 0.832859 9.8544 0.662412 11.4241 1.13484C11.5671 1.17784 11.7131 1.22584 11.8601 1.28184C11.9672 1.32361 12.0866 1.32111 12.1919 1.27488C12.244 1.25199 12.2911 1.21906 12.3306 1.17796C12.37 1.13686 12.4009 1.0884 12.4216 1.03534C12.4423 0.982288 12.4523 0.92568 12.4511 0.868749C12.4499 0.811818 12.4375 0.75568 12.4146 0.70354C12.3917 0.6514 12.3588 0.604279 12.3177 0.564867C12.2766 0.525456 12.2281 0.494525 12.1751 0.473842C10.4323 -0.196026 8.49483 -0.146565 6.78848 0.611353C5.08213 1.36927 3.7465 2.77364 3.07508 4.51584C2.97954 4.76114 2.89873 5.01192 2.83308 5.26684H1.12308C1.00851 5.26684 0.898627 5.31236 0.817612 5.39337C0.736596 5.47439 0.691082 5.58427 0.691082 5.69884C0.691082 5.81342 0.736596 5.9233 0.817612 6.00431C0.898627 6.08533 1.00851 6.13084 1.12308 6.13084H2.65808C2.57173 6.81878 2.58452 7.51554 2.69608 8.19984H1.11608C1.00151 8.19984 0.891627 8.24536 0.810612 8.32637C0.729596 8.40739 0.684082 8.51727 0.684082 8.63184C0.684082 8.74642 0.729596 8.8563 0.810612 8.93731C0.891627 9.01833 1.00151 9.06384 1.11608 9.06384H2.90008C3.44165 10.8499 4.66992 12.3481 6.31519 13.2293C7.96045 14.1105 9.88819 14.3028 11.6751 13.7638C11.8391 13.7118 12.0031 13.6558 12.1631 13.5958C12.2207 13.5794 12.2743 13.551 12.3204 13.5127C12.3665 13.4743 12.404 13.4268 12.4307 13.3731C12.4573 13.3194 12.4725 13.2607 12.4752 13.2008C12.4779 13.1409 12.4681 13.0811 12.4464 13.0253C12.4246 12.9694 12.3915 12.9187 12.349 12.8763C12.3066 12.834 12.2558 12.801 12.1999 12.7794C12.1439 12.7578 12.0841 12.7481 12.0242 12.7509C11.9644 12.7538 11.9057 12.7691 11.8521 12.7958V12.7998Z" fill="#666666"/>
</svg>
