<svg width="21" height="21" viewBox="0 0 21 21" fill="none" xmlns="http://www.w3.org/2000/svg">
<path d="M17.0711 3.79999C15.6727 2.4013 13.8909 1.44873 11.951 1.06275C10.0112 0.67677 8.0004 0.87471 6.17305 1.63154C4.34569 2.38837 2.78381 3.67009 1.68493 5.31462C0.586042 6.95915 -0.000488281 8.89261 -0.000488281 10.8705C-0.000488281 12.8484 0.586042 14.7818 1.68493 16.4264C2.78381 18.0709 4.34569 19.3526 6.17305 20.1094C8.0004 20.8663 10.0112 21.0642 11.951 20.6782C13.8909 20.2922 15.6727 19.3397 17.0711 17.941C18.0058 17.0159 18.7478 15.9147 19.2541 14.7011C19.7605 13.4875 20.0212 12.1855 20.0212 10.8705C20.0212 9.55546 19.7605 8.25348 19.2541 7.03985C18.7478 5.82623 18.0058 4.72504 17.0711 3.79999ZM3.56315 17.339C5.05244 15.6326 7.15847 14.5875 9.41816 14.4335C11.6778 14.2796 13.9062 15.0293 15.6131 16.518C15.9061 16.7716 16.1805 17.046 16.4341 17.339C14.7252 19.0417 12.4111 19.9977 9.99865 19.9977C7.58623 19.9977 5.27213 19.0417 3.56315 17.339ZM17.0281 16.688C15.3669 14.8246 13.0336 13.6972 10.5414 13.554C8.04908 13.4107 5.60194 14.2632 3.73815 15.924C3.46843 16.1631 3.2133 16.4183 2.97415 16.688C1.71115 15.1693 0.978066 13.2801 0.886147 11.307H2.37115C2.4833 11.3016 2.58908 11.2533 2.66656 11.172C2.74403 11.0907 2.78725 10.9828 2.78725 10.8705C2.78725 10.7582 2.74403 10.6502 2.66656 10.569C2.58908 10.4877 2.4833 10.4394 2.37115 10.434H0.886147C0.985681 8.3169 1.82106 6.30096 3.24815 4.73399L4.28715 5.77799C4.37004 5.85305 4.47865 5.89331 4.59044 5.89041C4.70223 5.8875 4.8086 5.84166 4.88748 5.76239C4.96636 5.68313 5.01169 5.57653 5.01405 5.46473C5.0164 5.35292 4.97562 5.24451 4.90015 5.16199L3.86415 4.12299C5.429 2.69445 7.44457 1.85879 9.56115 1.76099V3.24599C9.56652 3.35814 9.61485 3.46392 9.69612 3.5414C9.77739 3.61887 9.88537 3.66209 9.99765 3.66209C10.1099 3.66209 10.2179 3.61887 10.2992 3.5414C10.3804 3.46392 10.4288 3.35814 10.4341 3.24599V1.76099C12.5512 1.86052 14.5672 2.6959 16.1341 4.12299L15.0931 5.16199C15.0109 5.24301 14.9643 5.35338 14.9634 5.46881C14.963 5.52596 14.9738 5.58264 14.9953 5.6356C15.0168 5.68856 15.0485 5.73678 15.0886 5.77749C15.1288 5.8182 15.1765 5.85061 15.2292 5.87286C15.2818 5.89512 15.3383 5.90679 15.3955 5.90721C15.5109 5.90806 15.6219 5.86301 15.7041 5.78199L16.7431 4.74299C18.1723 6.30863 19.008 8.32536 19.1051 10.443H17.6251C17.5661 10.4402 17.507 10.4494 17.4516 10.47C17.3962 10.4907 17.3455 10.5224 17.3027 10.5632C17.2599 10.604 17.2258 10.6531 17.2025 10.7074C17.1793 10.7618 17.1672 10.8203 17.1672 10.8795C17.1672 10.9386 17.1793 10.9972 17.2025 11.0515C17.2258 11.1059 17.2599 11.155 17.3027 11.1958C17.3455 11.2366 17.3962 11.2683 17.4516 11.289C17.507 11.3096 17.5661 11.3188 17.6251 11.316H19.1091C19.017 13.2852 18.2872 15.171 17.0281 16.688Z" fill="#C6521E"/>
</svg>
