<svg width="24" height="26" viewBox="0 0 24 26" fill="none" xmlns="http://www.w3.org/2000/svg">
<path d="M23.8 4.80802C23.6556 4.1511 23.3132 3.55426 22.819 3.09802C22.4368 2.71541 21.9828 2.41195 21.4831 2.20501C20.9834 1.99807 20.4478 1.89171 19.907 1.89202H18.168V0.715017C18.1621 0.577781 18.1034 0.448141 18.0041 0.353136C17.9049 0.258132 17.7729 0.205098 17.6355 0.205098C17.4981 0.205098 17.3661 0.258132 17.2669 0.353136C17.1677 0.448141 17.109 0.577781 17.103 0.715017V1.86502H6.95301V0.715017C6.95612 0.643147 6.94466 0.571389 6.9193 0.504068C6.89394 0.436747 6.85522 0.375256 6.80547 0.323298C6.75571 0.271341 6.69596 0.229993 6.6298 0.201745C6.56364 0.173498 6.49244 0.158936 6.42051 0.158936C6.34857 0.158936 6.27738 0.173498 6.21122 0.201745C6.14506 0.229993 6.0853 0.271341 6.03555 0.323298C5.98579 0.375256 5.94707 0.436747 5.92171 0.504068C5.89636 0.571389 5.88489 0.643147 5.88801 0.715017V1.86502H4.15001C3.32178 1.86033 2.51119 2.10417 1.82301 2.56502C1.5989 2.70754 1.39188 2.87531 1.20601 3.06502C0.822805 3.44787 0.519002 3.90264 0.312042 4.40322C0.105082 4.9038 -0.000959303 5.44034 6.53882e-06 5.98202V21.715C-0.000651493 22.2564 0.105492 22.7926 0.312359 23.2928C0.519225 23.7931 0.822751 24.2477 1.20555 24.6305C1.58835 25.0133 2.04291 25.3168 2.54319 25.5237C3.04347 25.7305 3.57964 25.8367 4.12101 25.836H19.879C20.4204 25.8367 20.9565 25.7305 21.4568 25.5237C21.9571 25.3168 22.4117 25.0133 22.7945 24.6305C23.1773 24.2477 23.4808 23.7931 23.6877 23.2928C23.8945 22.7926 24.0007 22.2564 24 21.715V6.04202C24.0044 5.62227 23.9368 5.20488 23.8 4.80802ZM22.987 21.743C22.9934 22.1511 22.9182 22.5563 22.7659 22.935C22.6135 23.3136 22.387 23.658 22.0997 23.9478C21.8124 24.2377 21.4701 24.4673 21.0929 24.6231C20.7157 24.7789 20.3111 24.8577 19.903 24.855H4.15001C3.74423 24.8578 3.34194 24.7799 2.96652 24.6259C2.59109 24.472 2.25 24.2449 1.96307 23.958C1.67613 23.671 1.44907 23.3299 1.29508 22.9545C1.14108 22.5791 1.06321 22.1768 1.06601 21.771V9.35002H22.991L22.987 21.743ZM23.015 8.31302H1.06501V6.01302C1.06235 5.60724 1.14034 5.20498 1.29446 4.8296C1.44858 4.45422 1.67575 4.11321 1.96278 3.82637C2.2498 3.53953 2.59096 3.31258 2.96644 3.1587C3.34192 3.00483 3.74423 2.92709 4.15001 2.93002H5.88801V4.08202C5.88489 4.15389 5.89636 4.22564 5.92171 4.29297C5.94707 4.36029 5.98579 4.42178 6.03555 4.47374C6.0853 4.52569 6.14506 4.56704 6.21122 4.59529C6.27738 4.62354 6.34857 4.6381 6.42051 4.6381C6.49244 4.6381 6.56364 4.62354 6.6298 4.59529C6.69596 4.56704 6.75571 4.52569 6.80547 4.47374C6.85522 4.42178 6.89394 4.36029 6.9193 4.29297C6.94466 4.22564 6.95612 4.15389 6.95301 4.08202V2.93002H17.131V4.08202C17.131 4.22378 17.1873 4.35973 17.2876 4.45997C17.3878 4.5602 17.5237 4.61652 17.6655 4.61652C17.8073 4.61652 17.9432 4.5602 18.0435 4.45997C18.1437 4.35973 18.2 4.22378 18.2 4.08202V2.93002H19.938C20.7573 2.92923 21.5436 3.25281 22.125 3.83002C22.5594 4.25495 22.8529 4.80295 22.966 5.40002C22.9986 5.60419 23.0173 5.81032 23.022 6.01702L23.015 8.31302Z" fill="#C6521E"/>
<path d="M5.15896 14.116C5.59695 14.1074 6.01638 13.9375 6.33697 13.639C6.49027 13.4838 6.61133 13.2999 6.6932 13.0977C6.77507 12.8955 6.81611 12.6791 6.81396 12.461C6.81209 12.1338 6.71381 11.8143 6.53142 11.5426C6.34903 11.2709 6.09061 11.0589 5.78845 10.9332C5.48629 10.8075 5.15379 10.7737 4.8325 10.8359C4.51121 10.8981 4.21538 11.0536 3.98196 11.283C3.82867 11.4382 3.7076 11.6222 3.62573 11.8243C3.54386 12.0265 3.50282 12.2429 3.50496 12.461C3.51359 12.899 3.68342 13.3184 3.98196 13.639C4.13702 13.7922 4.32083 13.9132 4.52283 13.995C4.72482 14.0769 4.94102 14.118 5.15896 14.116ZM4.68196 12.016C4.74095 11.9582 4.81137 11.9134 4.8887 11.8845C4.96602 11.8556 5.04854 11.8431 5.13096 11.848C5.2968 11.8434 5.45788 11.9037 5.57996 12.016C5.63773 12.075 5.68252 12.1454 5.71145 12.2227C5.74038 12.3001 5.75282 12.3826 5.74796 12.465C5.75935 12.5479 5.74997 12.6323 5.72064 12.7107C5.69132 12.7891 5.64297 12.8589 5.57996 12.914C5.52097 12.9718 5.45056 13.0165 5.37323 13.0455C5.2959 13.0744 5.21338 13.0868 5.13096 13.082C4.96513 13.0866 4.80404 13.0263 4.68196 12.914C4.6242 12.855 4.57941 12.7846 4.55048 12.7073C4.52155 12.6299 4.50911 12.5474 4.51396 12.465C4.5091 12.2983 4.56978 12.1364 4.68296 12.014L4.68196 12.016Z" fill="#C6521E"/>
<path d="M9.72906 14.116C10.167 14.1073 10.5865 13.9375 10.9071 13.639C11.0604 13.4838 11.1814 13.2998 11.2633 13.0976C11.3452 12.8955 11.3862 12.6791 11.3841 12.461C11.3754 12.023 11.2056 11.6036 10.9071 11.283C10.7551 11.1253 10.5717 11.0014 10.3688 10.9192C10.1658 10.8371 9.94788 10.7985 9.72906 10.806C9.29108 10.8146 8.87164 10.9844 8.55105 11.283C8.39775 11.4381 8.27669 11.6221 8.19482 11.8243C8.11295 12.0265 8.07191 12.2429 8.07405 12.461C8.08268 12.899 8.25251 13.3184 8.55105 13.639C8.70622 13.7923 8.89019 13.9133 9.09237 13.9952C9.29455 14.0771 9.51095 14.1181 9.72906 14.116ZM9.28006 12.016C9.33904 11.9582 9.40946 11.9134 9.48678 11.8845C9.56411 11.8555 9.64664 11.8431 9.72906 11.848C9.89489 11.8434 10.056 11.9036 10.1781 12.016C10.2694 12.1023 10.3323 12.2144 10.3581 12.3374C10.384 12.4604 10.3717 12.5884 10.3229 12.7042C10.2741 12.82 10.191 12.9181 10.0849 12.9855C9.97879 13.0528 9.85464 13.0861 9.72906 13.081C9.56323 13.0856 9.40214 13.0253 9.28006 12.913C9.22229 12.854 9.1775 12.7835 9.14857 12.7062C9.11964 12.6289 9.1072 12.5464 9.11206 12.464C9.10746 12.2976 9.16811 12.1361 9.28105 12.014L9.28006 12.016Z" fill="#C6521E"/>
<path d="M14.327 14.1161C14.765 14.1074 15.1844 13.9376 15.505 13.639C15.6583 13.4839 15.7794 13.2999 15.8613 13.0977C15.9431 12.8955 15.9842 12.6792 15.982 12.4611C15.9734 12.0231 15.8036 11.6036 15.505 11.283C15.3515 11.1276 15.1678 11.0051 14.9652 10.9231C14.7627 10.841 14.5455 10.8012 14.327 10.8061C13.889 10.8147 13.4696 10.9845 13.149 11.283C12.9936 11.4366 12.8711 11.6203 12.789 11.8229C12.707 12.0254 12.6672 12.2426 12.672 12.4611C12.6806 12.899 12.8505 13.3185 13.149 13.639C13.3042 13.7923 13.4882 13.9134 13.6903 13.9953C13.8925 14.0771 14.1089 14.1182 14.327 14.1161ZM13.878 12.041C13.937 11.9833 14.0074 11.9385 14.0848 11.9096C14.1621 11.8806 14.2446 11.8682 14.327 11.873C14.4929 11.8684 14.6539 11.9287 14.776 12.041C14.8594 12.1306 14.9143 12.2429 14.9337 12.3636C14.9531 12.4844 14.9362 12.6083 14.8851 12.7194C14.834 12.8306 14.7509 12.924 14.6466 12.9878C14.5422 13.0517 14.4213 13.0831 14.299 13.078C14.1332 13.0826 13.9721 13.0224 13.85 12.91C13.7582 12.789 13.709 12.641 13.71 12.4891C13.7062 12.3238 13.7668 12.1635 13.879 12.042L13.878 12.041Z" fill="#C6521E"/>
<path d="M18.897 14.116C19.335 14.1074 19.7544 13.9376 20.075 13.639C20.2283 13.4839 20.3494 13.2999 20.4313 13.0977C20.5131 12.8955 20.5542 12.6792 20.552 12.4611C20.5434 12.0231 20.3735 11.6036 20.075 11.283C19.7604 10.9752 19.3372 10.8038 18.897 10.8061C18.459 10.8147 18.0396 10.9845 17.719 11.283C17.5657 11.4382 17.4446 11.6222 17.3628 11.8244C17.2809 12.0266 17.2399 12.2429 17.242 12.4611C17.2506 12.899 17.4205 13.3185 17.719 13.639C17.8742 13.7923 18.0582 13.9134 18.2603 13.9953C18.4625 14.0771 18.6789 14.1182 18.897 14.116ZM18.448 12.016C18.507 11.9583 18.5774 11.9135 18.6547 11.8846C18.7321 11.8556 18.8146 11.8432 18.897 11.848C19.0629 11.8434 19.2239 11.9037 19.346 12.016C19.4374 12.1024 19.5002 12.2145 19.5261 12.3375C19.552 12.4605 19.5397 12.5884 19.4909 12.7043C19.442 12.8201 19.359 12.9182 19.2529 12.9855C19.1468 13.0529 19.0226 13.0862 18.897 13.081C18.7312 13.0857 18.5701 13.0254 18.448 12.913C18.3903 12.8541 18.3454 12.7836 18.3165 12.7063C18.2876 12.629 18.2752 12.5465 18.28 12.464C18.2754 12.2977 18.3361 12.1362 18.449 12.014L18.448 12.016Z" fill="#C6521E"/>
<path d="M5.15899 18.714C5.59697 18.7054 6.0164 18.5356 6.33699 18.237C6.49029 18.0818 6.61136 17.8979 6.69322 17.6957C6.77509 17.4935 6.81613 17.2771 6.81399 17.059C6.80536 16.621 6.63553 16.2016 6.33699 15.881C6.18182 15.7277 5.99784 15.6066 5.79566 15.5248C5.59348 15.4429 5.3771 15.4019 5.15899 15.404C4.721 15.4126 4.30158 15.5825 3.98099 15.881C3.82769 16.0362 3.70662 16.2202 3.62475 16.4223C3.54288 16.6245 3.50184 16.8409 3.50399 17.059C3.51261 17.497 3.68245 17.9164 3.98099 18.237C4.13616 18.3903 4.32013 18.5114 4.52231 18.5933C4.72449 18.6751 4.94087 18.7162 5.15899 18.714ZM4.68199 16.614C4.74098 16.5563 4.8114 16.5115 4.88872 16.4825C4.96605 16.4536 5.04857 16.4412 5.13099 16.446C5.29682 16.4414 5.45791 16.5017 5.57999 16.614C5.63775 16.673 5.68254 16.7434 5.71147 16.8207C5.7404 16.8981 5.75284 16.9806 5.74799 17.063C5.75683 17.1458 5.74626 17.2294 5.71709 17.3074C5.68793 17.3853 5.64098 17.4554 5.57999 17.512C5.521 17.5698 5.45058 17.6146 5.37325 17.6435C5.29593 17.6724 5.2134 17.6849 5.13099 17.68C4.96515 17.6846 4.80407 17.6243 4.68199 17.512C4.62422 17.453 4.57944 17.3826 4.5505 17.3053C4.52157 17.228 4.50913 17.1454 4.51398 17.063C4.50912 16.8964 4.5698 16.7344 4.68299 16.612L4.68199 16.614Z" fill="#C6521E"/>
<path d="M9.72906 18.714C10.167 18.7054 10.5865 18.5355 10.9071 18.237C11.0625 18.0834 11.185 17.8997 11.267 17.6972C11.3491 17.4946 11.3889 17.2775 11.3841 17.059C11.3754 16.621 11.2056 16.2016 10.9071 15.881C10.7551 15.7234 10.5717 15.5994 10.3688 15.5173C10.1658 15.4351 9.94788 15.3965 9.72906 15.404C9.29108 15.4126 8.87164 15.5825 8.55105 15.881C8.39775 16.0362 8.27669 16.2201 8.19482 16.4223C8.11295 16.6245 8.07191 16.8409 8.07405 17.059C8.08268 17.497 8.25251 17.9164 8.55105 18.237C8.70622 18.3903 8.89019 18.5114 9.09237 18.5932C9.29455 18.6751 9.51095 18.7161 9.72906 18.714ZM9.28006 16.614C9.33904 16.5562 9.40946 16.5114 9.48678 16.4825C9.56411 16.4536 9.64664 16.4411 9.72906 16.446C9.89489 16.4414 10.056 16.5017 10.1781 16.614C10.2358 16.673 10.2806 16.7434 10.3095 16.8207C10.3385 16.898 10.3509 16.9806 10.3461 17.063C10.3507 17.2288 10.2904 17.3899 10.1781 17.512C10.1191 17.5698 10.0487 17.6145 9.97132 17.6435C9.894 17.6724 9.81148 17.6848 9.72906 17.68C9.56323 17.6846 9.40214 17.6243 9.28006 17.512C9.22229 17.453 9.1775 17.3826 9.14857 17.3053C9.11964 17.2279 9.1072 17.1454 9.11206 17.063C9.1072 16.8963 9.16786 16.7344 9.28105 16.612L9.28006 16.614Z" fill="#C6521E"/>
<path d="M14.327 18.714C14.765 18.7053 15.1844 18.5355 15.505 18.237C15.6605 18.0834 15.783 17.8997 15.865 17.6972C15.947 17.4946 15.9868 17.2774 15.982 17.059C15.9734 16.621 15.8036 16.2016 15.505 15.881C15.3515 15.7255 15.1678 15.603 14.9652 15.521C14.7627 15.439 14.5455 15.3991 14.327 15.404C13.889 15.4126 13.4696 15.5824 13.149 15.881C12.9936 16.0345 12.8711 16.2182 12.789 16.4208C12.707 16.6233 12.6672 16.8405 12.672 17.059C12.6806 17.4969 12.8505 17.9164 13.149 18.237C13.3026 18.3924 13.4863 18.5149 13.6888 18.5969C13.8914 18.679 14.1085 18.7188 14.327 18.714ZM13.85 16.614C13.909 16.5562 13.9794 16.5114 14.0568 16.4825C14.1341 16.4535 14.2166 16.4411 14.299 16.446C14.4649 16.4414 14.6259 16.5016 14.748 16.614C14.8058 16.673 14.8506 16.7434 14.8795 16.8207C14.9084 16.898 14.9209 16.9805 14.916 17.063C14.9249 17.1457 14.9143 17.2294 14.8851 17.3073C14.856 17.3853 14.809 17.4553 14.748 17.512C14.689 17.5697 14.6186 17.6145 14.5413 17.6434C14.464 17.6724 14.3814 17.6848 14.299 17.68C14.1332 17.6846 13.9721 17.6243 13.85 17.512C13.7923 17.453 13.7475 17.3826 13.7185 17.3052C13.6896 17.2279 13.6772 17.1454 13.682 17.063C13.6772 16.8963 13.7378 16.7344 13.851 16.612L13.85 16.614Z" fill="#C6521E"/>
<path d="M18.897 18.714C19.335 18.7054 19.7544 18.5355 20.075 18.237C20.2283 18.0818 20.3494 17.8978 20.4313 17.6957C20.5131 17.4935 20.5542 17.2771 20.552 17.059C20.5435 16.621 20.3736 16.2015 20.075 15.881C19.923 15.7234 19.7397 15.5994 19.5367 15.5173C19.3338 15.4351 19.1158 15.3965 18.897 15.404C18.459 15.4126 18.0396 15.5825 17.719 15.881C17.5657 16.0362 17.4446 16.2201 17.3628 16.4223C17.2809 16.6245 17.2399 16.8409 17.242 17.059C17.2506 17.497 17.4205 17.9164 17.719 18.237C17.8742 18.3903 18.0582 18.5114 18.2603 18.5932C18.4625 18.6751 18.6789 18.7161 18.897 18.714ZM18.448 16.614C18.507 16.5562 18.5774 16.5114 18.6547 16.4825C18.7321 16.4536 18.8146 16.4411 18.897 16.446C19.0629 16.4414 19.2239 16.5017 19.346 16.614C19.4038 16.673 19.4486 16.7434 19.4775 16.8207C19.5064 16.898 19.5189 16.9806 19.514 17.063C19.5186 17.2288 19.4584 17.3899 19.346 17.512C19.287 17.5698 19.2166 17.6145 19.1393 17.6435C19.0619 17.6724 18.9794 17.6848 18.897 17.68C18.7312 17.6846 18.5701 17.6243 18.448 17.512C18.3903 17.453 18.3454 17.3826 18.3165 17.3053C18.2876 17.2279 18.2752 17.1454 18.28 17.063C18.2752 16.8963 18.3358 16.7344 18.449 16.612L18.448 16.614Z" fill="#C6521E"/>
<path d="M5.15899 23.257C5.59697 23.2483 6.0164 23.0785 6.33699 22.78C6.49029 22.6248 6.61136 22.4408 6.69322 22.2386C6.77509 22.0365 6.81613 21.8201 6.81399 21.602C6.80536 21.164 6.63553 20.7446 6.33699 20.424C6.18174 20.2709 5.99772 20.15 5.79555 20.0683C5.59337 19.9866 5.37703 19.9457 5.15899 19.948C4.721 19.9566 4.30158 20.1264 3.98099 20.425C3.82769 20.5801 3.70662 20.7641 3.62475 20.9663C3.54288 21.1685 3.50184 21.3849 3.50399 21.603C3.51261 22.041 3.68245 22.4604 3.98099 22.781C4.13624 22.9341 4.32025 23.055 4.52243 23.1367C4.7246 23.2183 4.94094 23.2592 5.15899 23.257ZM4.68199 21.157C4.74098 21.0992 4.8114 21.0544 4.88872 21.0255C4.96605 20.9965 5.04857 20.9841 5.13099 20.989C5.29682 20.9843 5.45791 21.0447 5.57999 21.157C5.63775 21.216 5.68254 21.2864 5.71147 21.3637C5.7404 21.441 5.75284 21.5235 5.74799 21.606C5.75683 21.6887 5.74626 21.7724 5.71709 21.8503C5.68793 21.9283 5.64098 21.9983 5.57999 22.055C5.521 22.1127 5.45058 22.1575 5.37325 22.1865C5.29593 22.2154 5.2134 22.2278 5.13099 22.223C4.96515 22.2276 4.80407 22.1673 4.68199 22.055C4.62422 21.996 4.57944 21.9256 4.5505 21.8482C4.52157 21.7709 4.50913 21.6884 4.51398 21.606C4.50886 21.439 4.56956 21.2766 4.68299 21.154L4.68199 21.157Z" fill="#C6521E"/>
<path d="M9.72906 23.257C10.167 23.2483 10.5865 23.0785 10.9071 22.78C11.0625 22.6264 11.185 22.4427 11.267 22.2402C11.3491 22.0376 11.3889 21.8204 11.3841 21.602C11.3754 21.164 11.2056 20.7446 10.9071 20.424C10.7551 20.2664 10.5717 20.1424 10.3688 20.0602C10.1658 19.9781 9.94788 19.9395 9.72906 19.947C9.29108 19.9556 8.87164 20.1254 8.55105 20.424C8.39775 20.5792 8.27669 20.7631 8.19482 20.9653C8.11295 21.1675 8.07191 21.3838 8.07405 21.602C8.08268 22.0399 8.25251 22.4594 8.55105 22.78C8.70622 22.9333 8.89019 23.0543 9.09237 23.1362C9.29455 23.2181 9.51095 23.2591 9.72906 23.257ZM9.28006 21.157C9.33904 21.0992 9.40946 21.0544 9.48678 21.0255C9.56411 20.9965 9.64664 20.9841 9.72906 20.989C9.89489 20.9843 10.056 21.0447 10.1781 21.157C10.2358 21.216 10.2806 21.2864 10.3095 21.3637C10.3385 21.441 10.3509 21.5235 10.3461 21.606C10.3507 21.7718 10.2904 21.9329 10.1781 22.055C10.1191 22.1127 10.0487 22.1575 9.97132 22.1865C9.894 22.2154 9.81148 22.2278 9.72906 22.223C9.56323 22.2276 9.40214 22.1673 9.28006 22.055C9.22229 21.996 9.1775 21.9256 9.14857 21.8482C9.11964 21.7709 9.1072 21.6884 9.11206 21.606C9.10693 21.439 9.16762 21.2766 9.28105 21.154L9.28006 21.157Z" fill="#C6521E"/>
<path d="M14.327 23.257C14.7649 23.2484 15.1844 23.0785 15.505 22.78C15.6604 22.6264 15.7829 22.4427 15.8649 22.2402C15.947 22.0376 15.9868 21.8205 15.982 21.602C15.9733 21.164 15.8035 20.7446 15.505 20.424C15.3498 20.2707 15.1658 20.1496 14.9636 20.0677C14.7614 19.9859 14.5451 19.9448 14.327 19.947C13.889 19.9556 13.4696 20.1255 13.149 20.424C12.9957 20.5792 12.8746 20.7631 12.7927 20.9653C12.7108 21.1675 12.6698 21.3839 12.672 21.602C12.6806 22.04 12.8504 22.4594 13.149 22.78C13.3025 22.9355 13.4862 23.058 13.6888 23.14C13.8913 23.222 14.1085 23.2618 14.327 23.257ZM13.8499 21.157C13.9089 21.0992 13.9794 21.0544 14.0567 21.0255C14.134 20.9966 14.2165 20.9841 14.299 20.989C14.4648 20.9844 14.6259 21.0447 14.748 21.157C14.8057 21.216 14.8505 21.2864 14.8794 21.3637C14.9084 21.4411 14.9208 21.5236 14.916 21.606C14.9248 21.6887 14.9142 21.7724 14.8851 21.8504C14.8559 21.9283 14.809 21.9984 14.748 22.055C14.689 22.1127 14.6185 22.1575 14.5412 22.1865C14.4639 22.2154 14.3814 22.2278 14.299 22.223C14.1331 22.2276 13.972 22.1673 13.8499 22.055C13.7922 21.996 13.7474 21.9256 13.7185 21.8483C13.6895 21.7709 13.6771 21.6884 13.6819 21.606C13.6768 21.439 13.7375 21.2767 13.851 21.154L13.8499 21.157Z" fill="#C6521E"/>
<path d="M18.897 23.257C19.335 23.2483 19.7544 23.0785 20.075 22.78C20.2283 22.6248 20.3494 22.4408 20.4313 22.2386C20.5131 22.0365 20.5542 21.8201 20.552 21.602C20.5434 21.164 20.3735 20.7446 20.075 20.424C19.923 20.2664 19.7397 20.1424 19.5367 20.0602C19.3338 19.9781 19.1158 19.9395 18.897 19.947C18.459 19.9556 18.0396 20.1254 17.719 20.424C17.5657 20.5792 17.4446 20.7631 17.3628 20.9653C17.2809 21.1675 17.2399 21.3838 17.242 21.602C17.2506 22.0399 17.4205 22.4594 17.719 22.78C17.8742 22.9333 18.0582 23.0543 18.2603 23.1362C18.4625 23.2181 18.6789 23.2591 18.897 23.257ZM18.448 21.157C18.507 21.0992 18.5774 21.0544 18.6547 21.0255C18.7321 20.9965 18.8146 20.9841 18.897 20.989C19.0629 20.9843 19.2239 21.0447 19.346 21.157C19.4038 21.216 19.4486 21.2864 19.4775 21.3637C19.5064 21.441 19.5189 21.5235 19.514 21.606C19.5186 21.7718 19.4584 21.9329 19.346 22.055C19.287 22.1127 19.2166 22.1575 19.1393 22.1865C19.0619 22.2154 18.9794 22.2278 18.897 22.223C18.7312 22.2276 18.5701 22.1673 18.448 22.055C18.3903 21.996 18.3454 21.9256 18.3165 21.8482C18.2876 21.7709 18.2752 21.6884 18.28 21.606C18.2749 21.439 18.3356 21.2766 18.449 21.154L18.448 21.157Z" fill="#C6521E"/>
</svg>
