<svg width="20" height="14" viewBox="0 0 20 14" fill="none" xmlns="http://www.w3.org/2000/svg">
<path d="M18.535 0H1.46703C1.05944 0.0207252 0.6766 0.201881 0.402117 0.503906C0.127633 0.805931 -0.0161938 1.20429 0.00203113 1.612V11.878C-0.0159223 12.2855 0.128028 12.6836 0.402483 12.9854C0.676938 13.2872 1.05962 13.4683 1.46703 13.489H18.537C18.9446 13.4683 19.3275 13.2871 19.6019 12.9851C19.8764 12.6831 20.0203 12.2847 20.002 11.877V1.612C20.0202 1.20396 19.8761 0.805301 19.6012 0.50322C19.3263 0.201138 18.943 0.0202143 18.535 0ZM19.291 1.612V11.878C19.2913 11.9709 19.2771 12.0634 19.249 12.152L12.649 6.745L19.249 1.338C19.2771 1.42661 19.2913 1.51905 19.291 1.612ZM18.535 0.780991C18.5951 0.780852 18.655 0.788595 18.713 0.804001L10.53 7.51199C10.3761 7.62417 10.1905 7.6846 10 7.6846C9.80954 7.6846 9.62398 7.62417 9.47003 7.51199L1.28703 0.804001C1.34511 0.788617 1.40495 0.780875 1.46503 0.780991H18.535ZM0.752031 12.151C0.723965 12.0624 0.70979 11.97 0.710024 11.877V1.612C0.70979 1.51905 0.723965 1.42661 0.752031 1.338L7.35203 6.745L0.752031 12.151ZM1.46503 12.709C1.40495 12.7091 1.34511 12.7014 1.28703 12.686L7.94003 7.23199L9.04503 8.138C9.31737 8.35112 9.65321 8.4669 9.99903 8.4669C10.3448 8.4669 10.6807 8.35112 10.953 8.138L12.058 7.23199L18.711 12.686C18.653 12.7014 18.5931 12.7091 18.533 12.709H1.46503Z" fill="#C6521E"/>
</svg>
