<svg width="25" height="26" viewBox="0 0 25 26" fill="none" xmlns="http://www.w3.org/2000/svg">
<path d="M12.3902 25.876C12.252 25.8758 12.1194 25.8212 12.0212 25.724C11.9605 25.6635 11.9156 25.5889 11.8907 25.5069C11.8657 25.4249 11.8614 25.3381 11.8782 25.254L12.6142 21.572C12.6338 21.4706 12.6836 21.3775 12.7572 21.305L20.8572 13.205C21.1506 12.913 21.5477 12.7491 21.9617 12.7491C22.3756 12.7491 22.7727 12.913 23.0662 13.205L24.5392 14.678C24.8316 14.9712 24.9959 15.3684 24.9959 15.7825C24.9959 16.1966 24.8316 16.5938 24.5392 16.887L16.4392 24.987C16.3664 25.0602 16.2734 25.11 16.1722 25.13L12.4902 25.866C12.4572 25.8724 12.4238 25.8757 12.3902 25.876ZM13.6072 21.929L13.0552 24.69L15.8172 24.138L23.8072 16.15C23.9046 16.0523 23.9594 15.92 23.9594 15.782C23.9594 15.644 23.9046 15.5117 23.8072 15.414L22.3342 13.941C22.2365 13.8435 22.1042 13.7888 21.9662 13.7888C21.8282 13.7888 21.6959 13.8435 21.5982 13.941L13.6072 21.929Z" fill="#C6521E"/>
<path d="M9.9 22.751H2.6C1.91101 22.7492 1.25076 22.4746 0.763563 21.9874C0.276369 21.5002 0.00184753 20.84 0 20.151L0 6.6C0.00184753 5.91101 0.276369 5.25076 0.763563 4.76356C1.25076 4.27637 1.91101 4.00185 2.6 4H4.688C4.82618 4 4.9587 4.05489 5.0564 4.1526C5.15411 4.2503 5.209 4.38282 5.209 4.521C5.209 4.65918 5.15411 4.7917 5.0564 4.8894C4.9587 4.98711 4.82618 5.042 4.688 5.042H2.6C2.18728 5.04358 1.79191 5.20823 1.50007 5.50007C1.20823 5.79191 1.04358 6.18728 1.042 6.6V20.147C1.04253 20.5604 1.20671 20.9568 1.49867 21.2495C1.79062 21.5422 2.18659 21.7074 2.6 21.709H9.9C10.0382 21.709 10.1707 21.7639 10.2684 21.8616C10.3661 21.9593 10.421 22.0918 10.421 22.23C10.421 22.3682 10.3661 22.5007 10.2684 22.5984C10.1707 22.6961 10.0382 22.751 9.9 22.751Z" fill="#C6521E"/>
<path d="M17.189 13.375C17.0508 13.375 16.9183 13.3201 16.8206 13.2224C16.7229 13.1247 16.668 12.9922 16.668 12.854V6.6C16.6664 6.18572 16.5005 5.789 16.2067 5.4969C15.9129 5.20481 15.5153 5.0412 15.101 5.042H13.022C12.8838 5.042 12.7513 4.98711 12.6536 4.8894C12.5559 4.7917 12.501 4.65918 12.501 4.521C12.501 4.38282 12.5559 4.2503 12.6536 4.1526C12.7513 4.05489 12.8838 4 13.022 4H15.101C15.79 4.00185 16.4502 4.27637 16.9374 4.76356C17.4246 5.25076 17.6991 5.91101 17.701 6.6V12.85C17.7021 12.9873 17.6489 13.1195 17.553 13.2178C17.4571 13.3161 17.3263 13.3726 17.189 13.375Z" fill="#C6521E"/>
<path d="M11.98 7.12501H5.72999C5.31571 7.12474 4.91846 6.96012 4.62543 6.66727C4.3324 6.37443 4.16752 5.97728 4.16699 5.56301V3.47501C4.16699 3.33683 4.22188 3.20431 4.31959 3.1066C4.4173 3.0089 4.54981 2.95401 4.68799 2.95401H6.30299C6.42039 2.36409 6.73868 1.83312 7.20365 1.45156C7.66862 1.06999 8.2515 0.86145 8.85299 0.86145C9.45448 0.86145 10.0374 1.06999 10.5023 1.45156C10.9673 1.83312 11.2856 2.36409 11.403 2.95401H13.018C13.1562 2.95401 13.2887 3.0089 13.3864 3.1066C13.4841 3.20431 13.539 3.33683 13.539 3.47501V5.56301C13.5385 5.97659 13.3741 6.37313 13.082 6.66586C12.7898 6.9586 12.3936 7.12368 11.98 7.12501ZM5.20899 4.00001V5.56301C5.20926 5.7011 5.26423 5.83347 5.36188 5.93112C5.45953 6.02877 5.5919 6.08374 5.72999 6.08401H11.98C12.1181 6.08374 12.2505 6.02877 12.3481 5.93112C12.4458 5.83347 12.5007 5.7011 12.501 5.56301V4.00001H10.938C10.8692 4.00001 10.8012 3.9864 10.7377 3.95997C10.6742 3.93354 10.6166 3.8948 10.5682 3.846C10.5197 3.79719 10.4814 3.73929 10.4555 3.67561C10.4296 3.61194 10.4165 3.54376 10.417 3.47501C10.4067 3.06745 10.2375 2.68005 9.94563 2.39544C9.65373 2.11083 9.26218 1.95154 8.85449 1.95154C8.4468 1.95154 8.05525 2.11083 7.76335 2.39544C7.47145 2.68005 7.3023 3.06745 7.29199 3.47501C7.29199 3.61318 7.2371 3.7457 7.13939 3.84341C7.04169 3.94111 6.90917 3.99601 6.77099 3.99601L5.20899 4.00001Z" fill="#C6521E"/>
<path d="M14.063 10.251H3.646C3.50782 10.251 3.3753 10.1961 3.2776 10.0984C3.17989 10.0007 3.125 9.86816 3.125 9.72998C3.125 9.59181 3.17989 9.45929 3.2776 9.36158C3.3753 9.26388 3.50782 9.20898 3.646 9.20898H14.063C14.2012 9.20898 14.3337 9.26388 14.4314 9.36158C14.5291 9.45929 14.584 9.59181 14.584 9.72998C14.584 9.86816 14.5291 10.0007 14.4314 10.0984C14.3337 10.1961 14.2012 10.251 14.063 10.251Z" fill="#C6521E"/>
<path d="M14.063 13.376H3.646C3.50782 13.376 3.3753 13.3211 3.2776 13.2234C3.17989 13.1257 3.125 12.9932 3.125 12.855C3.125 12.7168 3.17989 12.5843 3.2776 12.4866C3.3753 12.3889 3.50782 12.334 3.646 12.334H14.063C14.2012 12.334 14.3337 12.3889 14.4314 12.4866C14.5291 12.5843 14.584 12.7168 14.584 12.855C14.584 12.9932 14.5291 13.1257 14.4314 13.2234C14.3337 13.3211 14.2012 13.376 14.063 13.376Z" fill="#C6521E"/>
<path d="M14.063 16.501H3.646C3.50782 16.501 3.3753 16.4461 3.2776 16.3484C3.17989 16.2507 3.125 16.1182 3.125 15.98C3.125 15.8418 3.17989 15.7093 3.2776 15.6116C3.3753 15.5139 3.50782 15.459 3.646 15.459H14.063C14.2012 15.459 14.3337 15.5139 14.4314 15.6116C14.5291 15.7093 14.584 15.8418 14.584 15.98C14.584 16.1182 14.5291 16.2507 14.4314 16.3484C14.3337 16.4461 14.2012 16.501 14.063 16.501Z" fill="#C6521E"/>
</svg>
