<svg width="25" height="24" viewBox="0 0 25 24" fill="none" xmlns="http://www.w3.org/2000/svg">
<path d="M12.5 23.891C11.9681 23.8904 11.4542 23.6979 11.0528 23.3489C10.6514 22.9999 10.3894 22.5177 10.315 21.991H0.368C0.2704 21.991 0.176798 21.9522 0.107785 21.8832C0.0387714 21.8142 0 21.7206 0 21.623V6.17897C0 6.08137 0.0387714 5.98777 0.107785 5.91876C0.176798 5.84975 0.2704 5.81097 0.368 5.81097H2.941C3.03515 5.81589 3.12383 5.85675 3.18873 5.92513C3.25364 5.99351 3.28982 6.08419 3.28982 6.17847C3.28982 6.27275 3.25364 6.36344 3.18873 6.43182C3.12383 6.5002 3.03515 6.54106 2.941 6.54597H0.735V21.255H10.661C10.7093 21.255 10.7572 21.2645 10.8018 21.283C10.8465 21.3015 10.887 21.3286 10.9212 21.3628C10.9554 21.3969 10.9825 21.4375 11.001 21.4821C11.0195 21.5268 11.029 21.5746 11.029 21.623V21.686C11.039 22.0693 11.1983 22.4336 11.473 22.7012C11.7477 22.9689 12.116 23.1186 12.4995 23.1186C12.883 23.1186 13.2513 22.9689 13.526 22.7012C13.8007 22.4336 13.96 22.0693 13.97 21.686V21.623C13.97 21.5746 13.9795 21.5268 13.998 21.4821C14.0165 21.4375 14.0436 21.3969 14.0778 21.3628C14.112 21.3286 14.1525 21.3015 14.1972 21.283C14.2418 21.2645 14.2897 21.255 14.338 21.255H24.264V6.54897H22.059C21.9648 6.54406 21.8762 6.5032 21.8113 6.43482C21.7464 6.36644 21.7102 6.27575 21.7102 6.18147C21.7102 6.08719 21.7464 5.99651 21.8113 5.92813C21.8762 5.85975 21.9648 5.81889 22.059 5.81397H24.633C24.7299 5.81423 24.8228 5.85271 24.8915 5.92105C24.9602 5.98938 24.9992 6.08207 25 6.17897V21.623C25 21.7206 24.9612 21.8142 24.8922 21.8832C24.8232 21.9522 24.7296 21.991 24.632 21.991H14.685C14.6112 22.5179 14.3494 23.0005 13.9479 23.3496C13.5463 23.6988 13.0321 23.8911 12.5 23.891Z" fill="#C6521E"/>
<path d="M22.0579 19.049C21.9918 19.0492 21.9268 19.0316 21.8699 18.998C18.9449 17.26 15.9359 17.263 12.6699 19.006C12.6139 19.0356 12.5512 19.0503 12.4879 19.0486C12.4246 19.0468 12.3628 19.0288 12.3085 18.9962C12.2542 18.9637 12.2093 18.9176 12.178 18.8626C12.1467 18.8075 12.1301 18.7453 12.1299 18.682V2.79401C12.1298 2.73134 12.1458 2.6697 12.1762 2.61492C12.2067 2.56015 12.2506 2.51405 12.3039 2.48101C15.7649 0.336015 19.1149 0.339015 22.2639 2.49001C22.3127 2.52347 22.3527 2.5682 22.3806 2.62043C22.4085 2.67265 22.4233 2.73083 22.4239 2.79001V18.682C22.4236 18.7791 22.385 18.8721 22.3165 18.9409C22.2479 19.0096 22.155 19.0485 22.0579 19.049ZM12.8669 3.00001V18.083C14.2238 17.3587 15.7375 16.9777 17.2757 16.9732C18.8138 16.9686 20.3297 17.3408 21.6909 18.057V2.99001C18.8679 1.13201 15.9779 1.13701 12.8669 3.00001Z" fill="#C6521E"/>
<path d="M12.5 19.05C12.4396 19.0502 12.3802 19.0355 12.327 19.007C9.06297 17.264 6.05498 17.261 3.12698 18.999C3.07113 19.0314 3.00772 19.0487 2.94312 19.0489C2.87852 19.0491 2.815 19.0322 2.75896 19.0001C2.70291 18.968 2.65631 18.9217 2.62384 18.8658C2.59137 18.81 2.57417 18.7466 2.57397 18.682V2.79397C2.57455 2.73479 2.5894 2.67661 2.61725 2.62439C2.64511 2.57216 2.68514 2.52742 2.73397 2.49397C5.88197 0.342973 9.23397 0.340973 12.693 2.48497C12.7366 2.5091 12.7748 2.54185 12.8054 2.58121C12.836 2.62057 12.8583 2.66574 12.8709 2.71397C12.8835 2.76219 12.8861 2.81248 12.8787 2.86177C12.8713 2.91106 12.8539 2.95832 12.8277 3.0007C12.8014 3.04308 12.7669 3.07969 12.7261 3.1083C12.6852 3.13691 12.639 3.15694 12.5903 3.16716C12.5415 3.17737 12.4911 3.17757 12.4422 3.16774C12.3934 3.15792 12.347 3.13826 12.306 3.10997C9.12997 1.14097 6.18497 1.10197 3.30597 2.99397V18.057C4.76155 17.2993 6.3876 16.9289 8.02773 16.9814C9.66786 17.034 11.2669 17.5077 12.671 18.357C12.7431 18.3958 12.8002 18.4576 12.8332 18.5325C12.8662 18.6075 12.8733 18.6913 12.8534 18.7707C12.8334 18.8501 12.7875 18.9206 12.7229 18.971C12.6584 19.0214 12.5789 19.0489 12.497 19.049L12.5 19.05Z" fill="#C6521E"/>
<path d="M19.853 6.13199H14.706C14.6562 6.13459 14.6063 6.12701 14.5594 6.10972C14.5126 6.09242 14.4697 6.06577 14.4335 6.03139C14.3973 5.99701 14.3684 5.95562 14.3487 5.90973C14.329 5.86384 14.3188 5.81443 14.3188 5.76448C14.3188 5.71454 14.329 5.66512 14.3487 5.61924C14.3684 5.57335 14.3973 5.53196 14.4335 5.49758C14.4697 5.46319 14.5126 5.43654 14.5594 5.41925C14.6063 5.40196 14.6562 5.39438 14.706 5.39698H19.853C19.9472 5.4019 20.0359 5.44276 20.1008 5.51114C20.1657 5.57952 20.2018 5.6702 20.2018 5.76448C20.2018 5.85876 20.1657 5.94945 20.1008 6.01783C20.0359 6.08621 19.9472 6.12707 19.853 6.13199Z" fill="#C6521E"/>
<path d="M19.853 8.82803H14.706C14.6562 8.83063 14.6063 8.82306 14.5594 8.80576C14.5126 8.78847 14.4697 8.76182 14.4335 8.72744C14.3973 8.69306 14.3684 8.65166 14.3487 8.60578C14.329 8.55989 14.3188 8.51047 14.3188 8.46053C14.3188 8.41059 14.329 8.36117 14.3487 8.31528C14.3684 8.2694 14.3973 8.228 14.4335 8.19362C14.4697 8.15924 14.5126 8.13259 14.5594 8.1153C14.6063 8.098 14.6562 8.09043 14.706 8.09303H19.853C19.9472 8.09794 20.0359 8.1388 20.1008 8.20718C20.1657 8.27557 20.2018 8.36625 20.2018 8.46053C20.2018 8.55481 20.1657 8.64549 20.1008 8.71387C20.0359 8.78225 19.9472 8.82312 19.853 8.82803Z" fill="#C6521E"/>
<path d="M19.853 11.522H14.706C14.6562 11.5246 14.6063 11.517 14.5594 11.4997C14.5126 11.4824 14.4697 11.4558 14.4335 11.4214C14.3973 11.387 14.3684 11.3456 14.3487 11.2997C14.329 11.2539 14.3188 11.2044 14.3188 11.1545C14.3188 11.1046 14.329 11.0551 14.3487 11.0093C14.3684 10.9634 14.3973 10.922 14.4335 10.8876C14.4697 10.8532 14.5126 10.8266 14.5594 10.8093C14.6063 10.792 14.6562 10.7844 14.706 10.787H19.853C19.9472 10.7919 20.0359 10.8328 20.1008 10.9012C20.1657 10.9695 20.2018 11.0602 20.2018 11.1545C20.2018 11.2488 20.1657 11.3395 20.1008 11.4078C20.0359 11.4762 19.9472 11.5171 19.853 11.522Z" fill="#C6521E"/>
<path d="M19.853 14.22H14.706C14.6562 14.2226 14.6063 14.215 14.5594 14.1977C14.5126 14.1804 14.4697 14.1538 14.4335 14.1194C14.3973 14.085 14.3684 14.0436 14.3487 13.9977C14.329 13.9519 14.3188 13.9024 14.3188 13.8525C14.3188 13.8026 14.329 13.7531 14.3487 13.7072C14.3684 13.6614 14.3973 13.62 14.4335 13.5856C14.4697 13.5512 14.5126 13.5246 14.5594 13.5073C14.6063 13.49 14.6562 13.4824 14.706 13.485H19.853C19.9472 13.4899 20.0359 13.5308 20.1008 13.5992C20.1657 13.6675 20.2018 13.7582 20.2018 13.8525C20.2018 13.9468 20.1657 14.0375 20.1008 14.1058C20.0359 14.1742 19.9472 14.2151 19.853 14.22Z" fill="#C6521E"/>
<path d="M10.2939 6.13199H5.14692C5.05277 6.12707 4.96409 6.08621 4.89919 6.01783C4.83428 5.94945 4.7981 5.85876 4.7981 5.76448C4.7981 5.6702 4.83428 5.57952 4.89919 5.51114C4.96409 5.44276 5.05277 5.4019 5.14692 5.39698H10.2939C10.3438 5.39438 10.3937 5.40196 10.4405 5.41925C10.4874 5.43654 10.5302 5.46319 10.5664 5.49758C10.6027 5.53196 10.6315 5.57335 10.6512 5.61924C10.6709 5.66512 10.6811 5.71454 10.6811 5.76448C10.6811 5.81443 10.6709 5.86384 10.6512 5.90973C10.6315 5.95562 10.6027 5.99701 10.5664 6.03139C10.5302 6.06577 10.4874 6.09242 10.4405 6.10972C10.3937 6.12701 10.3438 6.13459 10.2939 6.13199Z" fill="#C6521E"/>
<path d="M10.2939 8.82803H5.14692C5.05277 8.82312 4.96409 8.78225 4.89919 8.71387C4.83428 8.64549 4.7981 8.55481 4.7981 8.46053C4.7981 8.36625 4.83428 8.27557 4.89919 8.20718C4.96409 8.1388 5.05277 8.09794 5.14692 8.09303H10.2939C10.3438 8.09043 10.3937 8.098 10.4405 8.1153C10.4874 8.13259 10.5302 8.15924 10.5664 8.19362C10.6027 8.228 10.6315 8.2694 10.6512 8.31528C10.6709 8.36117 10.6811 8.41059 10.6811 8.46053C10.6811 8.51047 10.6709 8.55989 10.6512 8.60578C10.6315 8.65166 10.6027 8.69306 10.5664 8.72744C10.5302 8.76182 10.4874 8.78847 10.4405 8.80576C10.3937 8.82306 10.3438 8.83063 10.2939 8.82803Z" fill="#C6521E"/>
<path d="M10.2939 11.522H5.14692C5.05277 11.5171 4.96409 11.4762 4.89919 11.4078C4.83428 11.3395 4.7981 11.2488 4.7981 11.1545C4.7981 11.0602 4.83428 10.9695 4.89919 10.9012C4.96409 10.8328 5.05277 10.7919 5.14692 10.787H10.2939C10.3438 10.7844 10.3937 10.792 10.4405 10.8093C10.4874 10.8266 10.5302 10.8532 10.5664 10.8876C10.6027 10.922 10.6315 10.9634 10.6512 11.0093C10.6709 11.0551 10.6811 11.1046 10.6811 11.1545C10.6811 11.2044 10.6709 11.2539 10.6512 11.2997C10.6315 11.3456 10.6027 11.387 10.5664 11.4214C10.5302 11.4558 10.4874 11.4824 10.4405 11.4997C10.3937 11.517 10.3438 11.5246 10.2939 11.522Z" fill="#C6521E"/>
<path d="M10.2939 14.22H5.14694C5.09707 14.2226 5.04719 14.215 5.00034 14.1977C4.95348 14.1804 4.91064 14.1538 4.87442 14.1194C4.8382 14.085 4.80935 14.0436 4.78964 13.9977C4.76993 13.9519 4.75977 13.9024 4.75977 13.8525C4.75977 13.8026 4.76993 13.7531 4.78964 13.7072C4.80935 13.6614 4.8382 13.62 4.87442 13.5856C4.91064 13.5512 4.95348 13.5246 5.00034 13.5073C5.04719 13.49 5.09707 13.4824 5.14694 13.485H10.2939C10.3438 13.4824 10.3937 13.49 10.4405 13.5073C10.4874 13.5246 10.5302 13.5512 10.5665 13.5856C10.6027 13.62 10.6315 13.6614 10.6512 13.7072C10.671 13.7531 10.6811 13.8026 10.6811 13.8525C10.6811 13.9024 10.671 13.9519 10.6512 13.9977C10.6315 14.0436 10.6027 14.085 10.5665 14.1194C10.5302 14.1538 10.4874 14.1804 10.4405 14.1977C10.3937 14.215 10.3438 14.2226 10.2939 14.22Z" fill="#C6521E"/>
</svg>
