<svg width="23" height="22" viewBox="0 0 23 22" fill="none" xmlns="http://www.w3.org/2000/svg">
<path d="M19.791 11.71C19.6695 11.71 19.553 11.6618 19.4671 11.5759C19.3813 11.49 19.333 11.3735 19.333 11.252V3.16701C19.3325 2.8025 19.1874 2.45307 18.9297 2.19533C18.6719 1.93758 18.3225 1.79254 17.958 1.79201H6.042C5.67749 1.79254 5.32806 1.93758 5.07031 2.19533C4.81256 2.45307 4.66753 2.8025 4.667 3.16701V11.252C4.667 11.3736 4.61869 11.4902 4.53271 11.5762C4.44672 11.6622 4.3301 11.7105 4.2085 11.7105C4.0869 11.7105 3.97028 11.6622 3.88429 11.5762C3.79831 11.4902 3.75 11.3736 3.75 11.252V3.16701C3.75106 2.55965 3.99294 1.97749 4.4226 1.5482C4.85226 1.11892 5.43463 0.877543 6.042 0.877014L17.958 0.877014C18.5654 0.877543 19.1477 1.11892 19.5774 1.5482C20.0071 1.97749 20.2489 2.55965 20.25 3.16701V11.252C20.25 11.3122 20.2381 11.3719 20.215 11.4275C20.192 11.4831 20.1581 11.5337 20.1155 11.5762C20.0729 11.6188 20.0223 11.6525 19.9666 11.6754C19.9109 11.6984 19.8512 11.7101 19.791 11.71Z" fill="#C6521E"/>
<path d="M12.0002 15.536C11.6311 15.5364 11.2675 15.4475 10.9402 15.277L1.24719 10.219C1.19076 10.193 1.1402 10.1557 1.09858 10.1096C1.05696 10.0634 1.02515 10.0093 1.00507 9.95047C0.984999 9.89165 0.977078 9.82937 0.98179 9.7674C0.986503 9.70543 1.00375 9.64506 1.03249 9.58995C1.06123 9.53485 1.10086 9.48615 1.14898 9.44682C1.1971 9.40748 1.25271 9.37833 1.31243 9.36113C1.37215 9.34393 1.43474 9.33904 1.49641 9.34675C1.55808 9.35446 1.61754 9.37461 1.67119 9.40599L11.3642 14.463C11.5604 14.5654 11.7784 14.6189 11.9997 14.6189C12.221 14.6189 12.439 14.5654 12.6352 14.463L22.3292 9.40599C22.4362 9.3566 22.5582 9.3503 22.6697 9.38838C22.7813 9.42646 22.8739 9.506 22.9284 9.61052C22.983 9.71505 22.9952 9.83653 22.9625 9.94981C22.9299 10.0631 22.8549 10.1595 22.7532 10.219L13.0602 15.276C12.7329 15.4467 12.3693 15.5359 12.0002 15.536Z" fill="#C6521E"/>
<path d="M21.166 21.957H2.833C2.34685 21.9565 1.88078 21.763 1.53711 21.4192C1.19344 21.0753 1.00027 20.6091 1 20.123V8.58399C0.999316 8.24821 1.09128 7.91875 1.26577 7.63187C1.44027 7.34499 1.69052 7.11181 1.989 6.95799L4 5.91299C4.05339 5.88522 4.11172 5.86823 4.17166 5.863C4.23161 5.85776 4.292 5.86439 4.34939 5.8825C4.40678 5.90061 4.46003 5.92984 4.50612 5.96853C4.55221 6.00722 4.59023 6.05461 4.618 6.10799C4.64578 6.16137 4.66277 6.2197 4.668 6.27965C4.67323 6.3396 4.6666 6.39999 4.6485 6.45738C4.63039 6.51476 4.60116 6.56802 4.56247 6.61411C4.52378 6.6602 4.47639 6.69822 4.423 6.72599L2.412 7.77099C2.26278 7.84796 2.13764 7.96455 2.05032 8.10797C1.963 8.25139 1.91688 8.41608 1.917 8.58399V20.123C1.917 20.3662 2.01362 20.5994 2.18559 20.7714C2.35756 20.9434 2.5908 21.04 2.834 21.04H21.166C21.4092 21.04 21.6425 20.9434 21.8144 20.7714C21.9864 20.5994 22.083 20.3662 22.083 20.123V8.58399C22.0831 8.41623 22.0369 8.2517 21.9496 8.10845C21.8622 7.96521 21.7371 7.8488 21.588 7.77199L19.58 6.72299C19.5206 6.69927 19.4668 6.66337 19.4222 6.6176C19.3775 6.57184 19.3429 6.51722 19.3206 6.45728C19.2983 6.39733 19.2888 6.33338 19.2927 6.26954C19.2967 6.2057 19.3139 6.14339 19.3434 6.08663C19.3729 6.02987 19.4139 5.9799 19.4638 5.93996C19.5138 5.90002 19.5716 5.87098 19.6334 5.85472C19.6953 5.83845 19.7599 5.83532 19.823 5.84553C19.8861 5.85574 19.9464 5.87906 20 5.91399L22.01 6.95899C22.3087 7.11241 22.5592 7.34534 22.7338 7.63208C22.9085 7.91882 23.0006 8.24823 23 8.58399V20.123C22.9997 20.6093 22.8064 21.0756 22.4625 21.4195C22.1187 21.7634 21.6523 21.9567 21.166 21.957Z" fill="#C6521E"/>
<path d="M11.6562 8.78299C11.5347 8.78296 11.4182 8.73477 11.3322 8.64899L10.3002 7.61799C10.2143 7.53206 10.166 7.41552 10.166 7.29399C10.166 7.17247 10.2143 7.05592 10.3002 6.96999C10.3862 6.88406 10.5027 6.83579 10.6242 6.83579C10.7457 6.83579 10.8623 6.88406 10.9482 6.96999L11.6242 7.64599L13.0242 5.96899C13.0614 5.91865 13.1085 5.87645 13.1625 5.84501C13.2166 5.81356 13.2766 5.79353 13.3387 5.78615C13.4009 5.77878 13.4638 5.78421 13.5238 5.80212C13.5838 5.82002 13.6394 5.85002 13.6873 5.89027C13.7352 5.93051 13.7744 5.98014 13.8024 6.03611C13.8303 6.09207 13.8466 6.15317 13.85 6.21564C13.8535 6.27812 13.8441 6.34064 13.8225 6.39934C13.8008 6.45805 13.7674 6.51171 13.7242 6.55699L12.0062 8.61899C11.9655 8.66791 11.9151 8.70777 11.8581 8.73601C11.8011 8.76426 11.7388 8.78026 11.6752 8.78299H11.6562Z" fill="#C6521E"/>
<path d="M13.661 10.96H9.46701C9.16554 10.959 8.87681 10.8383 8.6642 10.6246C8.45159 10.4108 8.33248 10.1215 8.33301 9.82001V4.76701C8.33248 4.46554 8.45159 4.17618 8.6642 3.96245C8.87681 3.74871 9.16554 3.62807 9.46701 3.62701H14.533C14.8346 3.62807 15.1234 3.74868 15.3362 3.96238C15.5489 4.17609 15.6683 4.46545 15.668 4.76701V8.94101C15.6679 9.09064 15.6382 9.23876 15.5807 9.3769C15.5233 9.51504 15.4391 9.64048 15.333 9.74601L14.463 10.624C14.251 10.8369 13.9634 10.9573 13.663 10.959L13.661 10.96ZM9.46701 4.54401C9.43803 4.5444 9.40942 4.55052 9.38281 4.562C9.3562 4.57348 9.33212 4.5901 9.31196 4.61092C9.2918 4.63173 9.27594 4.65633 9.26531 4.68329C9.25468 4.71025 9.24948 4.73904 9.25001 4.76801V9.82001C9.24948 9.84899 9.25468 9.87778 9.26531 9.90474C9.27594 9.9317 9.2918 9.95629 9.31196 9.97711C9.33212 9.99792 9.3562 10.0145 9.38281 10.026C9.40942 10.0375 9.43803 10.0436 9.46701 10.044H13.661C13.7177 10.0438 13.772 10.0212 13.812 9.98101L14.683 9.10101C14.704 9.08024 14.7207 9.05548 14.732 9.02817C14.7434 9.00087 14.7491 8.97158 14.749 8.94201V4.76701C14.7495 4.73804 14.7443 4.70924 14.7337 4.68229C14.7231 4.65533 14.7072 4.63073 14.6871 4.60992C14.6669 4.5891 14.6428 4.57248 14.6162 4.561C14.5896 4.54952 14.561 4.5434 14.532 4.54301L9.46701 4.54401Z" fill="#C6521E"/>
</svg>
