<svg width="13" height="22" viewBox="0 0 13 22" fill="none" xmlns="http://www.w3.org/2000/svg">
<path d="M2.90698 4.0404e-07H10.094C10.4746 -0.000201269 10.8516 0.0750962 11.2029 0.221512C11.5543 0.367928 11.8731 0.582568 12.141 0.853013C12.4136 1.11777 12.6302 1.4346 12.7779 1.7847C12.9256 2.1348 13.0015 2.51102 13.001 2.89101V18.134C13.0006 18.5125 12.9243 18.8871 12.7766 19.2356C12.6288 19.5841 12.4127 19.8995 12.141 20.163C11.873 20.4333 11.5542 20.6477 11.2028 20.794C10.8515 20.9402 10.4746 21.0153 10.094 21.015H2.90698C2.13601 21.0138 1.39688 20.7075 0.851013 20.163C0.582279 19.8977 0.368714 19.5818 0.222656 19.2336C0.0765981 18.8853 0.000922626 18.5116 0 18.134V2.89101C9.31377e-06 2.5119 0.0752369 2.13657 0.221313 1.78674C0.36739 1.43691 0.581426 1.11955 0.851013 0.853013C1.39672 0.308185 2.13586 0.00150126 2.90698 4.0404e-07ZM10.094 0.658005H2.90698C2.31106 0.658155 1.73957 0.894818 1.31799 1.31601C1.11005 1.5221 0.94516 1.76746 0.832886 2.03784C0.720612 2.30823 0.663203 2.59824 0.664001 2.89101V18.134C0.663897 18.4253 0.721655 18.7138 0.833923 18.9826C0.946192 19.2514 1.11073 19.4953 1.31799 19.7C1.73957 20.1212 2.31106 20.3579 2.90698 20.358H10.094C10.3877 20.3587 10.6786 20.3009 10.9497 20.1879C11.2208 20.0749 11.4667 19.9091 11.673 19.7C11.8833 19.497 12.0505 19.2537 12.1646 18.9846C12.2786 18.7156 12.3373 18.4263 12.337 18.134V2.89101C12.3382 2.59729 12.2799 2.30637 12.1658 2.03572C12.0517 1.76507 11.8841 1.52027 11.673 1.31601C11.4667 1.10695 11.2208 0.941086 10.9497 0.82811C10.6786 0.715134 10.3877 0.65731 10.094 0.658005Z" fill="#C6521E"/>
<path d="M1.86908 1.81598H11.4581V16.104H1.54004V1.81598H1.86908ZM10.7941 2.46498H2.20508V15.447H10.7941V2.46498Z" fill="#C6521E"/>
<path d="M6.49585 16.836C6.67694 16.8375 6.85581 16.8761 7.02142 16.9494C7.18704 17.0227 7.33591 17.129 7.45886 17.262C7.70551 17.5351 7.84204 17.89 7.84204 18.258C7.84204 18.626 7.70551 18.9809 7.45886 19.254C7.33591 19.387 7.18704 19.4934 7.02142 19.5666C6.85581 19.6399 6.67694 19.6785 6.49585 19.68C6.31625 19.6783 6.13894 19.6396 5.97498 19.5663C5.81101 19.493 5.6639 19.3867 5.54285 19.254C5.2962 18.9809 5.15967 18.626 5.15967 18.258C5.15967 17.89 5.2962 17.5351 5.54285 17.262C5.6639 17.1293 5.81101 17.023 5.97498 16.9497C6.13894 16.8764 6.31625 16.8377 6.49585 16.836ZM6.97284 17.707C6.91542 17.6374 6.84338 17.5814 6.76178 17.543C6.68018 17.5045 6.59106 17.4846 6.50085 17.4846C6.41065 17.4846 6.32159 17.5045 6.23999 17.543C6.15839 17.5814 6.08629 17.6374 6.02887 17.707C5.89128 17.8571 5.81494 18.0534 5.81494 18.257C5.81494 18.4606 5.89128 18.6569 6.02887 18.807C6.0879 18.874 6.1605 18.9277 6.24188 18.9644C6.32327 19.0012 6.41155 19.0202 6.50085 19.0202C6.59016 19.0202 6.67844 19.0012 6.75983 18.9644C6.84121 18.9277 6.91381 18.874 6.97284 18.807C7.10473 18.6541 7.17731 18.4589 7.17731 18.257C7.17731 18.0551 7.10473 17.8599 6.97284 17.707Z" fill="#C6521E"/>
</svg>
