<svg width="17" height="21" viewBox="0 0 17 21" fill="none" xmlns="http://www.w3.org/2000/svg">
<path d="M14.101 8.117H13.801V5.3C13.801 3.89435 13.2426 2.54628 12.2486 1.55233C11.2547 0.558391 9.90662 0 8.50098 0C7.09533 0 5.74725 0.558391 4.75331 1.55233C3.75937 2.54628 3.20098 3.89435 3.20098 5.3V8.117H2.90098C2.13185 8.117 1.39422 8.42254 0.850368 8.96639C0.306513 9.51025 0.000976563 10.2479 0.000976562 11.017V17.784C0.000976562 18.5531 0.306513 19.2908 0.850368 19.8346C1.39422 20.3785 2.13185 20.684 2.90098 20.684H14.101C14.8701 20.684 15.6077 20.3785 16.1516 19.8346C16.6954 19.2908 17.001 18.5531 17.001 17.784V11.016C17.0007 10.247 16.6951 9.50968 16.1512 8.96604C15.6074 8.4224 14.8699 8.117 14.101 8.117ZM4.30898 5.3C4.30898 4.18861 4.75048 3.12274 5.53635 2.33687C6.32222 1.551 7.38809 1.1095 8.49948 1.1095C9.61087 1.1095 10.6767 1.551 11.4626 2.33687C12.2485 3.12274 12.69 4.18861 12.69 5.3V8.117H4.30898V5.3ZM15.366 19.048C15.2001 19.2144 15.0029 19.3464 14.7858 19.4363C14.5687 19.5263 14.336 19.5724 14.101 19.572H2.90098C2.42659 19.5717 1.9717 19.3832 1.63626 19.0477C1.30081 18.7123 1.11224 18.2574 1.11198 17.783V11.016C1.11198 10.5415 1.30046 10.0865 1.63596 9.75099C1.97147 9.41549 2.42651 9.227 2.90098 9.227H14.101C14.336 9.22687 14.5687 9.27305 14.7859 9.36289C15.0031 9.45274 15.2004 9.5845 15.3666 9.75063C15.5329 9.91677 15.6647 10.114 15.7547 10.3312C15.8447 10.5483 15.891 10.781 15.891 11.016V17.783C15.8913 18.0181 15.845 18.2509 15.7549 18.468C15.6648 18.6851 15.5326 18.8822 15.366 19.048Z" fill="#C6521E"/>
</svg>
