<svg width="18" height="10" viewBox="0 0 18 10" fill="none" xmlns="http://www.w3.org/2000/svg">
<path d="M17.187 9.99998C17.0899 9.99998 16.9968 9.96142 16.9282 9.89278C16.8595 9.82414 16.821 9.73105 16.821 9.63398C16.821 7.50058 15.9735 5.45456 14.4649 3.94601C12.9564 2.43747 10.9104 1.58998 8.77697 1.58998C6.64357 1.58998 4.59755 2.43747 3.08901 3.94601C1.58047 5.45456 0.732975 7.50058 0.732975 9.63398C0.732975 9.73105 0.694417 9.82414 0.625778 9.89278C0.55714 9.96142 0.464043 9.99998 0.366974 9.99998C0.269905 9.99998 0.176812 9.96142 0.108173 9.89278C0.0395351 9.82414 0.000976562 9.73105 0.000976562 9.63398C0.000976563 7.30631 0.925639 5.07397 2.57155 3.42806C4.21747 1.78215 6.4498 0.857483 8.77748 0.857483C11.1052 0.857483 13.3375 1.78215 14.9834 3.42806C16.6293 5.07397 17.554 7.30631 17.554 9.63398C17.554 9.68213 17.5445 9.7298 17.526 9.77427C17.5076 9.81874 17.4805 9.85914 17.4464 9.89314C17.4123 9.92714 17.3719 9.95407 17.3273 9.97241C17.2828 9.99074 17.2351 10.0001 17.187 9.99998Z" fill="#C6521E"/>
</svg>
