<svg width="12" height="11" viewBox="0 0 12 11" fill="none" xmlns="http://www.w3.org/2000/svg">
<path d="M5.77595 10.595C4.7275 10.596 3.70231 10.286 2.83007 9.70422C1.95783 9.12245 1.27774 8.29504 0.875825 7.32668C0.473914 6.35832 0.368242 5.29251 0.572179 4.26408C0.776115 3.23566 1.2805 2.29082 2.02152 1.5491C2.76253 0.80738 3.7069 0.302109 4.73513 0.0972021C5.76337 -0.107705 6.82928 -0.00304049 7.79802 0.397957C8.76676 0.798954 9.5948 1.47826 10.1774 2.34995C10.76 3.22164 11.071 4.24654 11.071 5.29499C11.071 6.69978 10.5132 8.04709 9.52038 9.04089C8.52752 10.0347 7.18073 10.5937 5.77595 10.595ZM5.77595 0.736995C4.87326 0.736996 3.99085 1.00474 3.24036 1.50635C2.48988 2.00796 1.90503 2.7209 1.55981 3.55497C1.2146 4.38904 1.12453 5.30676 1.301 6.19203C1.47747 7.0773 1.91255 7.89034 2.55119 8.52829C3.18984 9.16624 4.00336 9.60043 4.88882 9.77593C5.77429 9.95143 6.69191 9.86035 7.5256 9.51422C8.35929 9.16809 9.07159 8.58246 9.57238 7.83142C10.0732 7.08039 10.3399 6.19768 10.3389 5.29499C10.3376 4.08522 9.85646 2.92537 9.00102 2.06993C8.14557 1.21449 6.98573 0.733318 5.77595 0.731994V0.736995Z" fill="#C6521E"/>
</svg>
