<svg width="24" height="24" viewBox="0 0 24 24" fill="none" xmlns="http://www.w3.org/2000/svg">
<path d="M14.6561 14.944C15.7157 14.5137 16.6207 13.7734 17.2524 12.82C17.8841 11.8666 18.213 10.7446 18.1961 9.60101C18.0999 8.02311 17.4053 6.54138 16.254 5.45811C15.1026 4.37484 13.5814 3.77167 12.0006 3.77167C10.4197 3.77167 8.89849 4.37484 7.74717 5.45811C6.59586 6.54138 5.90125 8.02311 5.80507 9.60101C5.78814 10.7446 6.11707 11.8666 6.74875 12.82C7.38043 13.7734 8.2854 14.5137 9.34507 14.944L9.39307 14.97L9.72107 15.508C9.56245 15.5999 9.42647 15.7261 9.32315 15.8775C9.21982 16.0289 9.15178 16.2016 9.12405 16.3827C9.09632 16.5639 9.10959 16.749 9.1629 16.9244C9.21621 17.0997 9.3082 17.2609 9.43207 17.396C9.27073 17.5731 9.16443 17.7934 9.12616 18.0299C9.08788 18.2664 9.11927 18.5089 9.2165 18.7278C9.31374 18.9468 9.4726 19.1327 9.67372 19.2629C9.87483 19.3931 10.1095 19.4619 10.3491 19.461H13.6491C13.8886 19.4619 14.1233 19.3931 14.3244 19.2629C14.5255 19.1327 14.6844 18.9468 14.7816 18.7278C14.8789 18.5089 14.9103 18.2664 14.872 18.0299C14.8337 17.7934 14.7274 17.5731 14.5661 17.396C14.6899 17.2609 14.7819 17.0997 14.8352 16.9244C14.8885 16.749 14.9018 16.5639 14.8741 16.3827C14.8464 16.2016 14.7783 16.0289 14.675 15.8775C14.5717 15.7261 14.4357 15.5999 14.2771 15.508L14.6051 14.97L14.6561 14.944ZM13.6561 18.636H10.3561C10.2465 18.636 10.1415 18.5925 10.064 18.515C9.98658 18.4376 9.94307 18.3325 9.94307 18.223C9.94307 18.1135 9.98658 18.0084 10.064 17.931C10.1415 17.8535 10.2465 17.81 10.3561 17.81H13.6561C13.7656 17.81 13.8706 17.8535 13.9481 17.931C14.0256 18.0084 14.0691 18.1135 14.0691 18.223C14.0691 18.3325 14.0256 18.4376 13.9481 18.515C13.8706 18.5925 13.7656 18.636 13.6561 18.636ZM13.6561 16.984H10.3561C10.2465 16.984 10.1415 16.9405 10.064 16.863C9.98658 16.7856 9.94307 16.6805 9.94307 16.571C9.94307 16.4615 9.98658 16.3564 10.064 16.279C10.1415 16.2015 10.2465 16.158 10.3561 16.158H13.6561C13.7656 16.158 13.8706 16.2015 13.9481 16.279C14.0256 16.3564 14.0691 16.4615 14.0691 16.571C14.0691 16.6805 14.0256 16.7856 13.9481 16.863C13.8706 16.9405 13.7656 16.984 13.6561 16.984ZM14.2851 14.208L14.1201 14.298C14.0563 14.3329 14.0029 14.384 13.9651 14.446L13.4251 15.332H13.2441V12.198L15.1881 10.254L14.6041 9.67001L12.5341 11.731C12.4566 11.8084 12.4131 11.9135 12.4131 12.023V15.331H11.5871V12.031C11.5871 11.9215 11.5435 11.8164 11.4661 11.739L9.39707 9.66901L8.81307 10.253L10.7571 12.197V15.331H10.5761L10.0361 14.445C9.99797 14.3828 9.94417 14.3318 9.88007 14.297L9.71507 14.207L9.67407 14.188C8.76179 13.821 7.98218 13.1861 7.43805 12.367C6.89391 11.548 6.6108 10.5832 6.62606 9.60001C6.71897 8.23924 7.32507 6.9645 8.32182 6.03348C9.31857 5.10246 10.6316 4.58461 11.9956 4.58461C13.3595 4.58461 14.6726 5.10246 15.6693 6.03348C16.6661 6.9645 17.2722 8.23924 17.3651 9.60001C17.3803 10.5832 17.0972 11.548 16.5531 12.367C16.009 13.1861 15.2293 13.821 14.3171 14.188L14.2851 14.208Z" fill="#C6521E"/>
<path d="M3.51051 3.81021L3.14111 4.54901L5.61957 5.78824L5.98897 5.04944L3.51051 3.81021Z" fill="#C6521E"/>
<path d="M20.5407 3.96923L17.9121 4.84601L18.1735 5.62957L20.8021 4.7528L20.5407 3.96923Z" fill="#C6521E"/>
<path d="M4.15207 9.13599H1.67407V9.96199H4.15207V9.13599Z" fill="#C6521E"/>
<path d="M22.3249 9.13599H19.8469V9.96199H22.3249V9.13599Z" fill="#C6521E"/>
<path d="M5.61957 14.1348L3.14111 15.374L3.51051 16.1128L5.98897 14.8736L5.61957 14.1348Z" fill="#C6521E"/>
<path d="M18.3794 14.1372L18.01 14.876L20.4885 16.1152L20.8579 15.3764L18.3794 14.1372Z" fill="#C6521E"/>
<path d="M12.4129 0.875H11.5869V2.94H12.4129V0.875Z" fill="#C6521E"/>
<path d="M23.978 20.288V19.462C18.589 19.462 12.863 20.762 12.826 23.179H11.174C11.137 20.764 5.41097 19.462 0.0219727 19.462V20.288C6.07297 20.288 10.298 21.807 10.346 23.179H0.0219727V24.005H23.978V23.179H13.654C13.704 21.807 17.927 20.288 23.978 20.288Z" fill="#C6521E"/>
<path d="M0.0434454 21.5282L0 22.353L7.84912 22.7664L7.89257 21.9416L0.0434454 21.5282Z" fill="#C6521E"/>
<path d="M23.956 21.5266L16.1069 21.9408L16.1505 22.7656L23.9995 22.3514L23.956 21.5266Z" fill="#C6521E"/>
</svg>
