<svg width="21" height="18" viewBox="0 0 21 18" fill="none" xmlns="http://www.w3.org/2000/svg">
<path d="M14.6471 6.85503C14.5652 6.77733 14.464 6.7228 14.3541 6.69704L11.9091 6.13303L10.6091 3.98603C10.5538 3.88895 10.4737 3.80824 10.3771 3.7521C10.2805 3.69596 10.1708 3.66638 10.0591 3.66638C9.94734 3.66638 9.8376 3.69596 9.741 3.7521C9.6444 3.80824 9.5644 3.88895 9.50909 3.98603L8.20908 6.14204L5.75709 6.70903C5.65052 6.73339 5.55207 6.78494 5.47134 6.85864C5.3906 6.93235 5.33034 7.02571 5.29641 7.12962C5.26248 7.23354 5.25603 7.34448 5.2777 7.45162C5.29938 7.55877 5.34843 7.65848 5.42008 7.74104L7.07108 9.63303L6.85108 12.144C6.84087 12.2533 6.85922 12.3632 6.90432 12.4632C6.94942 12.5632 7.01973 12.6498 7.10836 12.7144C7.19699 12.779 7.3009 12.8195 7.40989 12.8319C7.51888 12.8443 7.62921 12.8281 7.73008 12.785L10.0511 11.8L12.3171 12.759C12.4181 12.8125 12.5316 12.8378 12.6457 12.8324C12.7598 12.8269 12.8704 12.7908 12.9658 12.728C13.0612 12.6651 13.1379 12.5777 13.1879 12.4749C13.238 12.3722 13.2594 12.2579 13.2501 12.144L13.0301 9.63303L14.6631 7.75504C14.7802 7.6335 14.8443 7.47047 14.8413 7.30173C14.8383 7.13299 14.7684 6.97233 14.6471 6.85503ZM11.9091 9.01103C11.8533 9.07491 11.8109 9.14934 11.7845 9.2299C11.758 9.31047 11.748 9.39553 11.7551 9.48003L11.9051 11.204L10.3051 10.527C10.2274 10.4943 10.1439 10.4775 10.0596 10.4775C9.97526 10.4775 9.8918 10.4943 9.81408 10.527L8.21407 11.204L8.36408 9.48003C8.37079 9.38678 8.35688 9.29319 8.32336 9.20592C8.28983 9.11864 8.2375 9.03982 8.17008 8.97504L7.07008 7.70503L8.75408 7.31303C8.84201 7.29324 8.92469 7.2549 8.9966 7.20058C9.06852 7.14625 9.128 7.0772 9.17107 6.99803L10.0501 5.53403L10.9431 7.01604C10.9866 7.08928 11.0445 7.15298 11.1132 7.20333C11.1819 7.25368 11.2601 7.28963 11.3431 7.30904L13.0271 7.70103L11.9091 9.01103Z" fill="#C6521E"/>
<path d="M17.109 3.05302C15.03 1.64568 12.577 0.893494 10.0665 0.893494C7.55594 0.893494 5.10298 1.64568 3.02399 3.05302C2.12551 3.65225 1.38267 4.45687 0.856979 5.40026C0.331289 6.34365 0.0378587 7.39868 0.000976562 8.47802C0.00452348 9.44402 0.241958 10.3948 0.692978 11.249C1.09422 12.0093 1.62443 12.6941 2.25998 13.273L0.659973 16.589C0.604516 16.7117 0.589637 16.8489 0.617477 16.9806C0.645317 17.1124 0.714432 17.2318 0.814789 17.3216C0.915145 17.4113 1.04151 17.4667 1.17552 17.4798C1.30953 17.4928 1.44421 17.4628 1.55998 17.394L5.21999 15.128C5.91893 15.4135 6.6431 15.6328 7.38298 15.783C8.25857 15.9629 9.15011 16.0537 10.044 16.054C12.5606 16.0941 15.0255 15.3381 17.087 13.894C18.0098 13.3228 18.7718 12.5257 19.3008 11.578C19.8297 10.6303 20.1083 9.56336 20.1101 8.47803C20.1119 7.3927 19.8369 6.32484 19.3111 5.3754C18.7852 4.42595 18.0259 3.6263 17.105 3.05202L17.109 3.05302ZM16.355 12.878C14.5111 14.1615 12.3092 14.8302 10.063 14.789C9.254 14.7911 8.44689 14.7114 7.65398 14.551C6.89731 14.3958 6.15968 14.1591 5.45398 13.845C5.35615 13.8011 5.24877 13.7827 5.14189 13.7916C5.03502 13.8005 4.93216 13.8365 4.84297 13.896L2.74298 15.196L3.60698 13.366C3.66677 13.2352 3.68054 13.088 3.64604 12.9484C3.61154 12.8088 3.53081 12.6849 3.41698 12.597C2.7597 12.065 2.21568 11.4067 1.81699 10.661C1.45956 9.98275 1.2725 9.22771 1.27197 8.46103C1.3097 7.58283 1.55616 6.72626 1.99092 5.9623C2.42568 5.19834 3.03622 4.54898 3.77197 4.06802C5.63379 2.82342 7.82298 2.15909 10.0625 2.15909C12.302 2.15909 14.4912 2.82342 16.353 4.06802C17.0875 4.55024 17.6972 5.1999 18.1318 5.96359C18.5664 6.72728 18.8136 7.58321 18.853 8.46103C18.8153 9.34215 18.5692 10.2018 18.135 10.9694C17.7008 11.737 17.0908 12.3908 16.355 12.877V12.878Z" fill="#C6521E"/>
</svg>
