<svg width="25" height="25" viewBox="0 0 25 25" fill="none" xmlns="http://www.w3.org/2000/svg">
<path d="M18.229 24.834C16.8898 24.834 15.5807 24.4369 14.4672 23.6929C13.3538 22.9489 12.4859 21.8914 11.9734 20.6541C11.4609 19.4169 11.3269 18.0555 11.5881 16.742C11.8494 15.4286 12.4942 14.2221 13.4412 13.2752C14.3881 12.3282 15.5946 11.6834 16.9081 11.4221C18.2215 11.1608 19.5829 11.2949 20.8202 11.8074C22.0574 12.3199 23.1149 13.1877 23.8589 14.3012C24.6029 15.4147 25 16.7238 25 18.063C24.9979 19.8581 24.2838 21.5791 23.0145 22.8485C21.7451 24.1178 20.0241 24.8319 18.229 24.834ZM18.229 12.334C17.0959 12.334 15.9883 12.67 15.0461 13.2995C14.104 13.929 13.3697 14.8238 12.9361 15.8706C12.5025 16.9174 12.389 18.0693 12.6101 19.1807C12.8311 20.292 13.3768 21.3128 14.178 22.114C14.9792 22.9152 16 23.4609 17.1113 23.6819C18.2227 23.903 19.3746 23.7895 20.4214 23.3559C21.4682 22.9223 22.363 22.188 22.9925 21.2459C23.622 20.3037 23.958 19.1961 23.958 18.063C23.9564 16.5441 23.3523 15.0878 22.2783 14.0137C21.2042 12.9397 19.7479 12.3356 18.229 12.334Z" fill="#C6521E"/>
<path d="M17.183 20.666C17.0448 20.6658 16.9123 20.6112 16.814 20.514L14.731 18.431C14.6789 18.3836 14.637 18.326 14.6077 18.2619C14.5785 18.1978 14.5626 18.1284 14.5609 18.058C14.5593 17.9875 14.5719 17.9175 14.5982 17.8521C14.6244 17.7866 14.6636 17.7272 14.7134 17.6774C14.7632 17.6276 14.8226 17.5884 14.8881 17.5622C14.9535 17.536 15.0235 17.5233 15.094 17.5249C15.1644 17.5266 15.2338 17.5425 15.2979 17.5717C15.362 17.601 15.4196 17.6429 15.467 17.695L17.157 19.385L20.436 15.637C20.5279 15.5365 20.6555 15.4759 20.7916 15.4683C20.9276 15.4608 21.0611 15.5067 21.1636 15.5964C21.2662 15.6861 21.3295 15.8124 21.34 15.9482C21.3505 16.084 21.3075 16.2186 21.22 16.323L17.583 20.489C17.536 20.5427 17.4784 20.5861 17.4139 20.6165C17.3494 20.647 17.2793 20.6638 17.208 20.666H17.183Z" fill="#C6521E"/>
<path d="M9.9 20.666H0.521C0.382995 20.666 0.250628 20.6113 0.15295 20.5138C0.0552727 20.4163 0.000264884 20.284 0 20.146L0 15.979C0.00105877 15.0124 0.38553 14.0856 1.06906 13.4021C1.75259 12.7185 2.67935 12.3341 3.646 12.333H10.938C11.0762 12.333 11.2087 12.3879 11.3064 12.4856C11.4041 12.5833 11.459 12.7158 11.459 12.854C11.459 12.9922 11.4041 13.1247 11.3064 13.2224C11.2087 13.3201 11.0762 13.375 10.938 13.375H3.646C2.95709 13.3771 2.29699 13.6517 1.80985 14.1389C1.32272 14.626 1.04811 15.2861 1.046 15.975V19.621H9.9C10.0382 19.621 10.1707 19.6759 10.2684 19.7736C10.3661 19.8713 10.421 20.0038 10.421 20.142C10.421 20.2802 10.3661 20.4127 10.2684 20.5104C10.1707 20.6081 10.0382 20.663 9.9 20.663V20.666Z" fill="#C6521E"/>
<path d="M8.33395 10.25C7.40699 10.2498 6.50091 9.97473 5.73027 9.45959C4.95962 8.94446 4.35904 8.21238 4.00444 7.35592C3.64985 6.49947 3.55717 5.5571 3.73813 4.64798C3.91909 3.73885 4.36557 2.9038 5.0211 2.24842C5.67662 1.59303 6.51177 1.14673 7.42093 0.965965C8.33009 0.785197 9.27244 0.878074 10.1288 1.23285C10.9852 1.58763 11.7171 2.18837 12.2321 2.95912C12.7471 3.72988 13.022 4.63602 13.022 5.56298C13.0204 6.80573 12.5259 7.99712 11.6471 8.87579C10.7682 9.75445 9.57671 10.2487 8.33395 10.25ZM8.33395 1.91698C7.61284 1.91698 6.90792 2.13081 6.30834 2.53144C5.70876 2.93207 5.24144 3.5015 4.96549 4.16771C4.68953 4.83393 4.61733 5.56702 4.75801 6.27428C4.89869 6.98153 5.24594 7.63119 5.75584 8.14109C6.26574 8.65099 6.9154 8.99824 7.62265 9.13892C8.32991 9.2796 9.063 9.2074 9.72921 8.93144C10.3954 8.65549 10.9649 8.18817 11.3655 7.58859C11.7661 6.98901 11.98 6.28409 11.98 5.56298C11.9789 4.59632 11.5944 3.66956 10.9109 2.98604C10.2274 2.30251 9.30061 1.91804 8.33395 1.91698Z" fill="#C6521E"/>
<path d="M11.8731 5.65098C11.3637 5.62128 10.8671 5.47961 10.4188 5.23607C9.97039 4.99253 9.58125 4.6531 9.27906 4.24198C7.7931 5.3172 5.95572 5.79119 4.13506 5.56898C4.06723 5.5607 4.0017 5.53915 3.9422 5.50555C3.8827 5.47195 3.83041 5.42696 3.78829 5.37315C3.74618 5.31934 3.71508 5.25776 3.69677 5.19193C3.67846 5.1261 3.67329 5.0573 3.68156 4.98948C3.68984 4.92165 3.71139 4.85611 3.74499 4.79662C3.77859 4.73712 3.82358 4.68482 3.87739 4.64271C3.9312 4.6006 3.99278 4.5695 4.05861 4.55118C4.12444 4.53287 4.19323 4.5277 4.26106 4.53598C5.11077 4.64488 5.97389 4.57317 6.79397 4.32554C7.61406 4.07791 8.37263 3.65994 9.02006 3.09898C9.07712 3.04679 9.14492 3.00775 9.21869 2.9846C9.29247 2.96145 9.37042 2.95475 9.44706 2.96498C9.52439 2.97639 9.59815 3.00506 9.66289 3.04885C9.72764 3.09265 9.78169 3.15045 9.82106 3.21798C9.86206 3.28798 10.8451 4.93198 12.3351 4.54698C12.4015 4.52971 12.4707 4.5257 12.5387 4.53517C12.6067 4.54464 12.6722 4.56742 12.7314 4.6022C12.7906 4.63697 12.8423 4.68307 12.8837 4.73785C12.9251 4.79263 12.9553 4.85503 12.9726 4.92148C12.9898 4.98792 12.9938 5.05712 12.9844 5.12512C12.9749 5.19312 12.9521 5.25859 12.9173 5.31779C12.8826 5.37698 12.8365 5.42875 12.7817 5.47014C12.7269 5.51152 12.6645 5.54171 12.5981 5.55898C12.3614 5.6211 12.1177 5.65269 11.8731 5.65298V5.65098Z" fill="#C6521E"/>
</svg>
