<svg width="18" height="19" viewBox="0 0 18 19" fill="none" xmlns="http://www.w3.org/2000/svg">
<path d="M8.77595 10.595C7.7275 10.596 6.70231 10.286 5.83007 9.70422C4.95783 9.12245 4.27774 8.29504 3.87582 7.32668C3.47391 6.35832 3.36824 5.29251 3.57218 4.26408C3.77612 3.23566 4.2805 2.29082 5.02152 1.5491C5.76253 0.80738 6.7069 0.302109 7.73513 0.0972021C8.76337 -0.107705 9.82928 -0.00304049 10.798 0.397957C11.7668 0.798954 12.5948 1.47826 13.1774 2.34995C13.76 3.22164 14.071 4.24654 14.071 5.29499C14.071 6.69978 13.5132 8.04709 12.5204 9.04089C11.5275 10.0347 10.1807 10.5937 8.77595 10.595ZM8.77595 0.736995C7.87326 0.736996 6.99085 1.00474 6.24036 1.50635C5.48988 2.00796 4.90503 2.7209 4.55981 3.55497C4.2146 4.38904 4.12453 5.30676 4.301 6.19203C4.47747 7.0773 4.91255 7.89034 5.55119 8.52829C6.18984 9.16624 7.00336 9.60043 7.88882 9.77593C8.77429 9.95143 9.69191 9.86035 10.5256 9.51422C11.3593 9.16809 12.0716 8.58246 12.5724 7.83142C13.0732 7.08039 13.3399 6.19768 13.3389 5.29499C13.3376 4.08522 12.8565 2.92537 12.001 2.06993C11.1456 1.21449 9.98573 0.733318 8.77595 0.731994V0.736995Z" fill="#C6521E"/>
<path d="M17.187 19C17.0899 19 16.9968 18.9614 16.9282 18.8928C16.8595 18.8241 16.821 18.7311 16.821 18.634C16.821 16.5006 15.9735 14.4546 14.4649 12.946C12.9564 11.4375 10.9104 10.59 8.77697 10.59C6.64357 10.59 4.59755 11.4375 3.08901 12.946C1.58047 14.4546 0.732975 16.5006 0.732975 18.634C0.732975 18.7311 0.694417 18.8241 0.625778 18.8928C0.55714 18.9614 0.464043 19 0.366974 19C0.269905 19 0.176812 18.9614 0.108173 18.8928C0.0395351 18.8241 0.000976562 18.7311 0.000976562 18.634C0.000976563 16.3063 0.925639 14.074 2.57155 12.4281C4.21747 10.7821 6.4498 9.85748 8.77748 9.85748C11.1052 9.85748 13.3375 10.7821 14.9834 12.4281C16.6293 14.074 17.554 16.3063 17.554 18.634C17.554 18.6821 17.5445 18.7298 17.526 18.7743C17.5076 18.8187 17.4805 18.8591 17.4464 18.8931C17.4123 18.9271 17.3719 18.9541 17.3273 18.9724C17.2828 18.9907 17.2351 19.0001 17.187 19Z" fill="#C6521E"/>
</svg>
