<svg width="18" height="17" viewBox="0 0 18 17" fill="none" xmlns="http://www.w3.org/2000/svg">
<path d="M17.5 4.51562C17.4219 6.20833 16.224 8.53906 13.9062 11.5078C11.5365 14.6068 9.53125 16.1562 7.89062 16.1562C6.875 16.1562 6.01562 15.2057 5.3125 13.3047C5.15625 12.8099 4.96094 12.1068 4.72656 11.1953C4.41406 10.0234 4.17969 9.17708 4.02344 8.65625C3.86719 8.10938 3.67188 7.52344 3.4375 6.89844C3.22917 6.27344 3.02083 5.85677 2.8125 5.64844C2.63021 5.41406 2.42188 5.29688 2.1875 5.29688C2.05729 5.29688 1.60156 5.57031 0.820312 6.11719L0 5.0625C0.260417 4.85417 0.651042 4.51562 1.17188 4.04688C1.69271 3.55208 2.08333 3.1875 2.34375 2.95312C2.63021 2.71875 2.96875 2.44531 3.35938 2.13281C3.75 1.82031 4.08854 1.59896 4.375 1.46875C4.66146 1.33854 4.92188 1.26042 5.15625 1.23438C6.51042 1.10417 7.34375 2.02865 7.65625 4.00781C8.28125 7.9401 8.82812 10.1146 9.29688 10.5312C9.71354 10.9219 10.3646 10.4271 11.25 9.04688L11.3281 8.96875C12.0573 7.79688 12.4479 6.91146 12.5 6.3125C12.5521 5.76562 12.4349 5.375 12.1484 5.14062C11.888 4.88021 11.5625 4.77604 11.1719 4.82812C10.8073 4.85417 10.4297 4.94531 10.0391 5.10156C10.8984 2.28906 12.5391 0.921875 14.9609 1C16.7578 1.05208 17.6042 2.22396 17.5 4.51562Z" fill="#C6521E"/>
</svg>
