<svg width="22" height="15" viewBox="0 0 22 15" fill="none" xmlns="http://www.w3.org/2000/svg">
<path d="M21.4844 2.34375C21.5625 2.65625 21.6276 3.04688 21.6797 3.51562C21.7578 3.98438 21.8099 4.45312 21.8359 4.92188C21.862 5.36458 21.875 5.78125 21.875 6.17188C21.901 6.5625 21.9141 6.88802 21.9141 7.14844V7.5C21.9141 9.84375 21.7708 11.5755 21.4844 12.6953C21.3542 13.138 21.1198 13.5286 20.7812 13.8672C20.4427 14.2057 20.0391 14.4401 19.5703 14.5703C19.0755 14.7005 18.138 14.8047 16.7578 14.8828C15.3776 14.9349 14.1146 14.974 12.9688 15H11.25C6.79688 15 4.02344 14.8568 2.92969 14.5703C1.91406 14.2839 1.27604 13.6589 1.01562 12.6953C0.885417 12.2005 0.78125 11.5234 0.703125 10.6641C0.651042 9.77865 0.611979 9.03646 0.585938 8.4375V7.5C0.585938 5.18229 0.729167 3.46354 1.01562 2.34375C1.14583 1.875 1.38021 1.47135 1.71875 1.13281C2.05729 0.794271 2.46094 0.559896 2.92969 0.429688C3.42448 0.299479 4.36198 0.208333 5.74219 0.15625C7.1224 0.078125 8.38542 0.0260417 9.53125 0H11.25C15.7031 0 18.4766 0.143229 19.5703 0.429688C20.0391 0.559896 20.4427 0.794271 20.7812 1.13281C21.1198 1.47135 21.3542 1.875 21.4844 2.34375ZM9.0625 10.7031L14.6484 7.5L9.0625 4.33594V10.7031Z" fill="#C6521E"/>
</svg>
